<?xml version="1.0" standalone="no"?>
<!DOCTYPE svg PUBLIC "-//W3C//DTD SVG 20010904//EN"
 "http://www.w3.org/TR/2001/REC-SVG-20010904/DTD/svg10.dtd">
<svg version="1.0" xmlns="http://www.w3.org/2000/svg"
 width="500.000000pt" height="500.000000pt" viewBox="0 0 500.000000 500.000000"
 preserveAspectRatio="xMidYMid meet">

<g transform="translate(0.000000,500.000000) scale(0.100000,-0.100000)"
fill="#000000" stroke="none">
<path d="M2248 4395 c-204 -39 -384 -141 -564 -320 -204 -202 -361 -480 -458
-813 -107 -361 -130 -770 -66 -1157 70 -433 244 -811 489 -1067 112 -117 187
-179 296 -242 275 -159 612 -168 899 -25 397 198 708 675 820 1257 40 208 49
330 43 574 -7 295 -40 499 -117 734 l-30 91 27 59 c54 115 33 266 -48 338 -33
31 -46 36 -87 36 -27 0 -57 -7 -70 -16 -13 -9 -24 -14 -26 -13 -32 52 -137
181 -193 239 -134 142 -339 266 -508 311 -106 27 -300 34 -407 14z m422 -130
c226 -73 413 -212 582 -435 41 -54 49 -70 44 -95 -3 -16 -9 -57 -12 -91 -15
-148 82 -287 188 -267 23 4 26 -1 61 -114 78 -251 102 -423 102 -733 -1 -309
-27 -488 -109 -740 -139 -431 -406 -773 -720 -925 -256 -124 -543 -121 -794
10 -399 207 -691 681 -787 1280 -22 135 -31 501 -16 647 37 357 154 696 334
967 94 141 279 327 392 393 182 106 309 139 510 134 118 -3 153 -8 225 -31z"/>
<path d="M2715 3856 c-45 -20 -66 -49 -85 -118 l-17 -63 -363 -5 -362 -5 -214
-538 c-118 -296 -214 -547 -214 -557 0 -10 96 -261 214 -557 l214 -538 440 -3
440 -2 216 543 c119 298 216 549 216 557 0 8 -83 224 -185 480 l-184 465 25
52 c74 149 -21 343 -141 289z m-71 -281 c24 -59 57 -85 111 -85 39 0 43 -2 57
-37 8 -21 90 -228 183 -461 l168 -422 -208 -525 -208 -525 -418 0 -418 0 -60
153 c-32 83 -125 317 -205 520 -80 202 -146 372 -146 377 0 6 75 198 166 427
91 230 183 464 205 521 l41 102 356 0 357 0 19 -45z"/>
<path d="M2365 3206 l-120 -31 -34 -73 c-34 -71 -35 -72 -67 -66 -44 8 -72
-10 -95 -59 -23 -51 -24 -96 -4 -145 l16 -37 -77 -157 -78 -157 19 -163 c10
-90 20 -170 24 -179 3 -9 54 -67 112 -128 l106 -113 124 34 123 33 169 349
168 348 -21 177 -21 176 -112 111 -112 112 -120 -32z m217 -123 l97 -98 18
-157 17 -156 -76 -159 c-42 -87 -113 -236 -158 -330 l-83 -173 -51 -14 c-28
-8 -79 -20 -114 -27 l-63 -13 -94 94 -94 95 -21 160 -20 160 74 153 c75 151
76 152 109 152 72 0 119 105 87 197 -9 25 -6 39 21 96 27 59 35 68 67 76 21 6
62 16 92 25 30 8 64 15 75 15 13 1 55 -34 117 -96z"/>
<path d="M2274 2741 c-90 -56 -124 -212 -70 -326 43 -93 101 -120 176 -82 70
34 95 88 95 202 0 78 -3 96 -25 134 -46 80 -117 110 -176 72z"/>
</g>
</svg>
